Coordinates
version=1
nRows=14
nColumns=24
inDegrees=yes

Units are S.I. units (second, meters, Newtons, ...)
Angles are in degrees.

endheader
time	pelvis_tilt	pelvis_list	pelvis_rotation	pelvis_tx	pelvis_ty	pelvis_tz	hip_flexion_r	hip_adduction_r	hip_rotation_r	knee_angle_r	ankle_angle_r	subtalar_angle_r	mtp_angle_r	hip_flexion_l	hip_adduction_l	hip_rotation_l	knee_angle_l	ankle_angle_l	subtalar_angle_l	mtp_angle_l	lumbar_extension	lumbar_bending	lumbar_rotation
      2.32000000	     15.23356338	     -1.18895483	      1.78114980	      0.89402242	      0.91472646	      0.35242123	      9.54020136	      2.67303934	     -3.72649340	    -26.52579405	     12.78926676	      0.48149355	     30.69105271	    -18.31880789	     -3.01753784	     -1.71166686	    -52.24753143	     12.09644195	      3.96380038	     52.39602422	    -30.05000073	      6.37482499	      4.40717974
      2.32500000	     14.95869415	     -1.48583344	      2.07437676	      0.89992783	      0.91480695	      0.35290287	      9.43784261	      3.11586421	     -3.71804756	    -26.51255307	     13.07688713	      0.09728584	     30.57370462	    -16.90099497	     -3.38998159	     -1.22477963	    -54.32843991	     12.23179419	      3.13842055	     52.11621634	    -29.76599307	      6.83890980	      4.47358191
      2.33000000	     14.61420759	     -1.79472012	      2.25474086	      0.90570839	      0.91479505	      0.35355188	      9.45132511	      3.56865035	     -3.58574570	    -26.56724532	     13.27161270	     -0.05449324	     30.02685680	    -15.42011512	     -3.70588522	     -0.85296674	    -56.31588211	     12.72374044	      2.57468603	     51.34889489	    -29.42813758	      7.24504106	      4.61674131
      2.33500000	     14.52176409	     -2.04018651	      2.52386845	      0.91161309	      0.91531503	      0.35399463	      9.12457616	      3.91755391	     -3.68766999	    -26.54308354	     13.69670481	     -0.11477491	     28.33963953	    -14.26619276	     -3.95772024	     -0.41751920	    -58.07741316	     13.11604418	      1.84652277	     49.94595228	    -29.34126044	      7.65181834	      4.68847518
      2.34000000	     14.57150119	     -2.28050200	      2.75106321	      0.91745490	      0.91615095	      0.35449054	      8.59204505	      4.26366099	     -3.82614300	    -26.38912855	     13.98044752	     -0.20624946	     28.29368617	    -13.28895170	     -4.20590954	     -0.07193688	    -59.68290203	     13.25662624	      0.86660265	     49.87692842	    -29.41709939	      8.02742542	      4.76161684
      2.34500000	     14.36751528	     -2.36232811	      3.03979439	      0.92320690	      0.91672895	      0.35470120	      8.38131160	      4.36992659	     -4.09872466	    -26.35644752	     14.42516161	     -0.22970563	     28.07766276	    -11.99092400	     -4.21854662	      0.47010513	    -61.23286569	     13.33512611	     -0.49744313	     49.35470534	    -29.19417976	      8.27302359	      4.60779492
      2.35000000	     14.26837717	     -2.49317347	      3.24898961	      0.92902842	      0.91758077	      0.35509710	      8.01004984	      4.54286520	     -4.21779488	    -26.24365640	     14.93415902	     -0.04631560	     26.64799829	    -10.82093954	     -4.33483888	      0.78392977	    -62.69236409	     13.57304838	     -1.47567053	     47.78335579	    -29.09461709	      8.53468389	      4.66932835
      2.35500000	     14.17132523	     -2.60245539	      3.45420860	      0.93470919	      0.91847590	      0.35553715	      7.63688898	      4.68579447	     -4.34988599	    -26.10559814	     15.21904171	      0.13687749	     26.36736663	     -9.63183674	     -4.45441645	      1.03970422	    -64.06200624	     13.59827720	     -2.50117334	     47.47571250	    -29.00843873	      8.73584758	      4.62362197
      2.36000000	     14.00884650	     -2.73074315	      3.62056423	      0.94028569	      0.91929888	      0.35605396	      7.32388416	      4.85367247	     -4.43996740	    -25.91676467	     15.46574470	      0.34361894	     25.80945866	     -8.34540754	     -4.59627143	      1.23217184	    -65.40276760	     13.73039696	     -3.23499292	     47.16357021	    -28.86042822	      8.95096091	      4.65977189
      2.36500000	     14.05248741	     -2.85687602	      3.73416339	      0.94599993	      0.92043957	      0.35664565	      6.73262876	      5.05643536	     -4.48746999	    -25.63806303	     15.65802470	      0.47310855	     25.69404043	     -7.34278571	     -4.76354176	      1.30898272	    -66.56954493	     13.83678222	     -3.92503352	     47.05140855	    -28.94984015	      9.13732150	      4.75458821
      2.37000000	     13.93153249	     -2.93317217	      3.97417238	      0.95163321	      0.92137130	      0.35711725	      6.29609319	      5.19741421	     -4.66018093	    -25.30072680	     15.86765697	      0.49091545	     25.43984859	     -6.11253468	     -4.85122805	      1.60467493	    -67.72489295	     14.02492585	     -4.27779752	     47.01961968	    -28.82302300	      9.30857752	      4.66205541
      2.37500000	     13.78635925	     -3.00777124	      4.05887067	      0.95730313	      0.92230770	      0.35777340	      5.90484486	      5.35212613	     -4.72388961	    -25.01769301	     16.26149478	      0.65141403	     23.99817842	     -4.90811833	     -4.90649247	      1.69130533	    -68.73550180	     14.27479686	     -4.83523388	     45.80463093	    -28.68163409	      9.38687427	      4.70524668
      2.38000000	     13.70494163	     -3.01878115	      4.17950393	      0.96293558	      0.92336852	      0.35827290	      5.42875248	      5.42913190	     -4.88866764	    -24.70327306	     16.49803711	      0.70820713	     23.96733032	     -3.78662543	     -4.89065166	      1.81624677	    -69.61618013	     14.56187055	     -5.25368264	     45.65384500	    -28.60071866	      9.45288334	      4.64192630
      2.38500000	     13.63099550	     -3.02743338	      4.27993535	      0.96858676	      0.92442566	      0.35871664	      4.93180118	      5.49603289	     -5.06567924	    -24.34979903	     16.68727953	      0.81353390	     23.93629917	     -2.70587824	     -4.85194999	      1.93715319	    -70.41427445	     14.81553371	     -5.50134745	     45.51000793	    -28.52961118	      9.50043370	      4.66764655
